# xmcd CD database file
#
# Track frame offsets:
#	150
#	23595
#	40297
#
# Disc length: 846 seconds
#
# Revision: 2
# Processed by: cddbd v1.5PL3 Copyright (c) Steve Scherf et al.
# Submitted via: CDex 1.50Beta6
#
DISCID=19034c03
DTITLE=メロン記念日 - 夏の夜はデインジャー!
DYEAR=2002
DGENRE=JPop
TTITLE0=夏の夜はデインジャー!
TTITLE1=愛メラメラ 恋ユラユラ
TTITLE2=夏の夜はデインジャー! (Instrumental)
EXTD=YEAR: 2002
EXTT0=
EXTT1=
EXTT2=
PLAYORDER=
